<?xml version="1.0" encoding="UTF-8"?>
<svg version="1.1" xmlns="http://www.w3.org/2000/svg" width="1400" height="331">
<path d="M0 0 C462 0 924 0 1400 0 C1400 109.23 1400 218.46 1400 331 C938 331 476 331 0 331 C0 221.77 0 112.54 0 0 Z " fill="#FEEA97" transform="translate(0,0)"/>
<path d="M0 0 C0.89370804 -0.00979385 1.78741608 -0.01958771 2.70820618 -0.02967834 C22.30500461 -0.20019047 41.19352736 -0.03859042 60.41015625 4.23828125 C61.41304687 4.45258789 62.4159375 4.66689453 63.44921875 4.88769531 C83.28753055 9.20064475 102.52279144 15.49008294 120.41650391 25.16113281 C122.534563 26.30549685 124.6655726 27.42348737 126.796875 28.54296875 C146.67657462 39.13705192 164.09134006 52.76842082 180.41015625 68.23828125 C181.16280762 68.94791016 181.16280762 68.94791016 181.93066406 69.671875 C189.92777257 77.26269954 196.84051093 85.39209833 203.41015625 94.23828125 C203.84070312 94.81336426 204.27125 95.38844727 204.71484375 95.98095703 C211.22579081 104.71894394 217.0019518 113.78263033 222.41015625 123.23828125 C222.74756836 123.81594238 223.08498047 124.39360352 223.43261719 124.98876953 C240.83546481 154.93015664 251.35827282 191.85239583 251.6484375 226.51953125 C251.66278839 227.96564034 251.66278839 227.96564034 251.6774292 229.44096375 C251.70191219 232.54010281 251.71453706 235.63905777 251.72265625 238.73828125 C251.72627167 239.78964264 251.72988708 240.84100403 251.73361206 241.92422485 C251.75750924 259.17419537 250.60732343 275.44961254 246.41015625 292.23828125 C81.08015625 292.23828125 -84.24984375 292.23828125 -254.58984375 292.23828125 C-266.2435963 214.5465976 -252.78017349 137.72294872 -205.58984375 73.30078125 C-189.65340652 52.07905662 -171.07609936 31.91461147 -149.58984375 16.23828125 C-147.12176768 14.35500772 -144.66934705 12.45169007 -142.21484375 10.55078125 C-140.34138529 9.11125764 -138.46565394 7.67474055 -136.58984375 6.23828125 C-135.59984375 6.73328125 -135.59984375 6.73328125 -134.58984375 7.23828125 C-135.36585938 7.94210938 -136.141875 8.6459375 -136.94140625 9.37109375 C-148.91594222 20.29026595 -160.73787393 31.31852723 -170.58984375 44.23828125 C-171.00266602 44.77469238 -171.41548828 45.31110352 -171.84082031 45.86376953 C-208.39061798 93.57329447 -229.19647033 150.57116344 -228.7956543 210.77685547 C-228.77721919 213.63257713 -228.775147 216.48797447 -228.77539062 219.34375 C-228.75562065 229.35383833 -228.50898301 239.26419241 -227.58984375 249.23828125 C-227.57526123 248.48023193 -227.56067871 247.72218262 -227.5456543 246.94116211 C-226.92926519 218.05363999 -223.77711872 190.71451044 -214.58984375 163.23828125 C-214.25726562 162.17222656 -213.9246875 161.10617188 -213.58203125 160.0078125 C-207.38261511 141.15699526 -197.87766812 121.84221549 -186.52734375 105.55078125 C-186.06255615 104.88071045 -185.59776855 104.21063965 -185.11889648 103.52026367 C-164.4457544 74.15200966 -138.2247922 48.54864877 -106.58984375 31.23828125 C-105.75114746 30.77325195 -104.91245117 30.30822266 -104.04833984 29.82910156 C-72.48347445 12.4351906 -36.37545153 0.33073587 0 0 Z " fill="#FCD27B" transform="translate(1138.58984375,38.76171875)"/>
<path d="M0 0 C0.89370804 -0.00979385 1.78741608 -0.01958771 2.70820618 -0.02967834 C22.30500461 -0.20019047 41.19352736 -0.03859042 60.41015625 4.23828125 C61.41304687 4.45258789 62.4159375 4.66689453 63.44921875 4.88769531 C83.28753055 9.20064475 102.52279144 15.49008294 120.41650391 25.16113281 C122.534563 26.30549685 124.6655726 27.42348737 126.796875 28.54296875 C146.67657462 39.13705192 164.09134006 52.76842082 180.41015625 68.23828125 C181.16280762 68.94791016 181.16280762 68.94791016 181.93066406 69.671875 C189.92777257 77.26269954 196.84051093 85.39209833 203.41015625 94.23828125 C203.84070312 94.81336426 204.27125 95.38844727 204.71484375 95.98095703 C211.22579081 104.71894394 217.0019518 113.78263033 222.41015625 123.23828125 C222.74756836 123.81594238 223.08498047 124.39360352 223.43261719 124.98876953 C240.83546481 154.93015664 251.35827282 191.85239583 251.6484375 226.51953125 C251.66278839 227.96564034 251.66278839 227.96564034 251.6774292 229.44096375 C251.70191219 232.54010281 251.71453706 235.63905777 251.72265625 238.73828125 C251.72627167 239.78964264 251.72988708 240.84100403 251.73361206 241.92422485 C251.75750924 259.17419537 250.60732343 275.44961254 246.41015625 292.23828125 C226.94015625 292.23828125 207.47015625 292.23828125 187.41015625 292.23828125 C187.41015625 286.48094066 187.44174501 282.57185875 188.41015625 277.23828125 C189.68120805 256.42360136 187.97374346 236.59563776 183.41015625 216.23828125 C183.18553711 215.23055664 182.96091797 214.22283203 182.72949219 213.18457031 C174.62151162 178.04998783 156.15911474 147.16576157 131.41015625 121.23828125 C130.60964844 120.38492188 129.80914063 119.5315625 128.984375 118.65234375 C97.69749673 86.18772702 48.83714485 63.38443297 3.66650391 62.27636719 C-15.43591637 61.95392859 -33.88870443 61.84738653 -52.58984375 66.23828125 C-53.3183252 66.4084375 -54.04680664 66.57859375 -54.79736328 66.75390625 C-73.0209122 71.09376906 -90.090579 77.36607604 -106.58984375 86.23828125 C-107.18071777 86.54846191 -107.7715918 86.85864258 -108.38037109 87.17822266 C-121.59478212 94.14073346 -133.51070431 103.05886171 -144.4296875 113.23046875 C-146.45523014 115.11316119 -148.53688766 116.89565186 -150.65234375 118.67578125 C-174.03763133 139.21375837 -189.55944453 168.22354908 -199.58984375 197.23828125 C-199.90719482 198.12040283 -200.2245459 199.00252441 -200.55151367 199.91137695 C-203.16058163 207.36804779 -204.87224656 214.78434372 -206.27734375 222.55078125 C-206.48939453 223.67806641 -206.70144531 224.80535156 -206.91992188 225.96679688 C-208.40680771 233.94532307 -209.71551541 241.65580854 -209.72265625 249.796875 C-209.72361298 250.50368912 -209.7245697 251.21050323 -209.72555542 251.93873596 C-209.72623227 253.430431 -209.72441269 254.92212907 -209.72021484 256.41381836 C-209.71493208 258.63858093 -209.720139 260.86313484 -209.7265625 263.08789062 C-209.72590024 264.55338585 -209.72461603 266.01888094 -209.72265625 267.484375 C-209.72096436 269.42848267 -209.72096436 269.42848267 -209.71923828 271.41186523 C-209.53291545 278.36170688 -209.02351873 285.29948156 -208.58984375 292.23828125 C-223.76984375 292.23828125 -238.94984375 292.23828125 -254.58984375 292.23828125 C-266.2435963 214.5465976 -252.78017349 137.72294872 -205.58984375 73.30078125 C-189.65340652 52.07905662 -171.07609936 31.91461147 -149.58984375 16.23828125 C-147.12176768 14.35500772 -144.66934705 12.45169007 -142.21484375 10.55078125 C-140.34138529 9.11125764 -138.46565394 7.67474055 -136.58984375 6.23828125 C-135.59984375 6.73328125 -135.59984375 6.73328125 -134.58984375 7.23828125 C-135.36585938 7.94210938 -136.141875 8.6459375 -136.94140625 9.37109375 C-148.91594222 20.29026595 -160.73787393 31.31852723 -170.58984375 44.23828125 C-171.00266602 44.77469238 -171.41548828 45.31110352 -171.84082031 45.86376953 C-208.39061798 93.57329447 -229.19647033 150.57116344 -228.7956543 210.77685547 C-228.77721919 213.63257713 -228.775147 216.48797447 -228.77539062 219.34375 C-228.75562065 229.35383833 -228.50898301 239.26419241 -227.58984375 249.23828125 C-227.57526123 248.48023193 -227.56067871 247.72218262 -227.5456543 246.94116211 C-226.92926519 218.05363999 -223.77711872 190.71451044 -214.58984375 163.23828125 C-214.25726562 162.17222656 -213.9246875 161.10617188 -213.58203125 160.0078125 C-207.38261511 141.15699526 -197.87766812 121.84221549 -186.52734375 105.55078125 C-186.06255615 104.88071045 -185.59776855 104.21063965 -185.11889648 103.52026367 C-164.4457544 74.15200966 -138.2247922 48.54864877 -106.58984375 31.23828125 C-105.75114746 30.77325195 -104.91245117 30.30822266 -104.04833984 29.82910156 C-72.48347445 12.4351906 -36.37545153 0.33073587 0 0 Z " fill="#FAB77B" transform="translate(1138.58984375,38.76171875)"/>
<path d="M0 0 C1.13308594 -0.00060425 1.13308594 -0.00060425 2.2890625 -0.0012207 C14.3456763 0.03581762 25.24547947 0.97595719 36.5625 5.4375 C37.32933105 5.73221191 38.09616211 6.02692383 38.88623047 6.33056641 C69.18697263 18.22934672 90.74957705 40.12496853 103.875 69.625 C112.28811124 90.1447835 114.62003905 114.6937737 109.5625 136.4375 C109.2325 137.0975 108.9025 137.7575 108.5625 138.4375 C36.6225 138.4375 -35.3175 138.4375 -109.4375 138.4375 C-113.14081787 117.45203206 -113.97325219 98.74719723 -107.4375 78.4375 C-107.16164063 77.56996094 -106.88578125 76.70242188 -106.6015625 75.80859375 C-100.84474769 58.9071759 -91.6067932 45.36458801 -79.4375 32.4375 C-78.89867187 31.83421875 -78.35984375 31.2309375 -77.8046875 30.609375 C-64.38405069 16.1771324 -45.29501479 7.17428708 -26.4375 2.4375 C-25.73713623 2.25276123 -25.03677246 2.06802246 -24.31518555 1.87768555 C-16.29127844 -0.00390425 -8.19522933 -0.00447045 0 0 Z " fill="#FEEA97" transform="translate(1103.4375,192.5625)"/>
<path d="M0 0 C0.72864258 0.00725098 1.45728516 0.01450195 2.20800781 0.02197266 C25.08079318 0.36995985 48.33954657 7.55675315 69 17 C70.33298814 17.58542204 71.66631298 18.17007812 73 18.75390625 C93.71590317 28.02424727 111.64939811 41.36414825 128 57 C128.92683594 57.87398437 129.85367187 58.74796875 130.80859375 59.6484375 C160.25101216 88.13032311 176.96840933 125.34361393 185 165 C185.17934082 165.82113281 185.35868164 166.64226562 185.54345703 167.48828125 C187.90789832 178.36424159 188.27826226 189.15793263 188.3125 200.25 C188.31814972 201.25501556 188.31814972 201.25501556 188.32391357 202.28033447 C188.35173587 212.03279599 187.50361747 221.38442224 186 231 C181.71 231 177.42 231 173 231 C173.15984375 229.61941406 173.3196875 228.23882812 173.484375 226.81640625 C174.23547095 218.48643255 174.22298901 210.14488763 174.24023438 201.78735352 C174.24989563 198.96795637 174.28098101 196.14930378 174.3125 193.33007812 C174.40468272 177.69773937 172.46939434 162.94343582 168.25 147.875 C167.86593994 146.49127197 167.86593994 146.49127197 167.47412109 145.07958984 C165.25368326 137.36627866 162.41776437 130.10992881 158.91650391 122.89453125 C157.98623814 120.97155247 157.09190653 119.03441754 156.19921875 117.09375 C148.71339139 101.14876075 138.65433989 87.13727384 127 74 C125.9351768 72.71024786 124.87222226 71.41894658 123.8125 70.125 C120.5393803 66.3462017 116.84723927 63.18102467 113 60 C112.22438721 59.34789551 112.22438721 59.34789551 111.43310547 58.68261719 C97.93335141 47.36568781 83.65534353 38.37581072 67.74560547 30.83447266 C66.23760133 30.1135834 64.74420706 29.36227869 63.25390625 28.60546875 C21.99313401 8.32911422 -29.6220216 9.95341497 -72.3125 24.3125 C-80.16807 27.28964046 -87.59409726 31.0571242 -95 35 C-95.68416992 35.3614209 -96.36833984 35.7228418 -97.07324219 36.09521484 C-106.32439572 41.01682852 -114.83546498 46.38334746 -123 53 C-123.52158691 53.42007324 -124.04317383 53.84014648 -124.58056641 54.27294922 C-143.32855695 69.4525741 -158.26222348 86.86773204 -170 108 C-170.57210205 109.01296143 -170.57210205 109.01296143 -171.15576172 110.04638672 C-185.44484113 135.46032465 -194.16441806 164.63078884 -193 194 C-192.79246094 192.87207031 -192.58492187 191.74414062 -192.37109375 190.58203125 C-186.41940931 159.62861198 -174.01472921 132.5560453 -153 109 C-152.38511719 108.26394531 -151.77023437 107.52789062 -151.13671875 106.76953125 C-131.66562372 83.48786392 -103.39694913 68.53623697 -74.8125 59.6875 C-74.04196289 59.44491455 -73.27142578 59.2023291 -72.47753906 58.95239258 C-59.4897879 55.10744197 -46.61185525 54.69929443 -33.18359375 54.79418945 C-30.47646819 54.81266056 -27.76968261 54.81469693 -25.0625 54.81445312 C-23.32291373 54.81936263 -21.58332974 54.82518846 -19.84375 54.83203125 C-19.0436853 54.83314407 -18.24362061 54.8342569 -17.41931152 54.83540344 C-13.17280287 54.87127803 -9.18278946 55.16335865 -5 56 C-5 56.33 -5 56.66 -5 57 C-6.96453125 57.03867188 -6.96453125 57.03867188 -8.96875 57.078125 C-50.97357522 58.23854383 -88.25515429 71.63812487 -117.81640625 102.44140625 C-142.30371588 129.0814464 -155.16829356 162.63700829 -155.1875 198.6875 C-155.20586914 200.47317383 -155.20586914 200.47317383 -155.22460938 202.29492188 C-155.23622687 209.41644453 -154.69592425 216.16008345 -153.4309082 223.17114258 C-153 226 -153 226 -153 231 C-171.81 231 -190.62 231 -210 231 C-211.39127998 219.86976013 -212.40346728 209.51933748 -212.375 198.4375 C-212.37512085 197.70387238 -212.3752417 196.97024475 -212.37536621 196.21438599 C-212.34491533 183.1316595 -210.90355779 170.77259255 -208 158 C-207.68232196 156.46146671 -207.36711963 154.92241965 -207.0546875 153.3828125 C-204.98512578 143.54006897 -201.84002601 134.28477154 -198 125 C-197.57581787 123.97229492 -197.57581787 123.97229492 -197.14306641 122.92382812 C-187.47367017 99.72592503 -173.87599286 79.47238762 -156.8125 61.0625 C-156.2546582 60.45986328 -155.69681641 59.85722656 -155.12207031 59.23632812 C-130.60937254 33.27155852 -98.02477028 15.97389848 -63.89501953 6.52734375 C-62.22692956 6.06314968 -60.56415869 5.57993041 -58.90234375 5.09375 C-39.60142981 -0.46046984 -19.90904703 -0.29166994 0 0 Z " fill="#FEEA97" transform="translate(1140,100)"/>
<path d="M0 0 C0.80887665 0.00182281 1.6177533 0.00364563 2.45114136 0.00552368 C15.11722462 0.05344392 27.38918828 0.6642623 39.8125 3.3125 C41.00456055 3.55395752 41.00456055 3.55395752 42.22070312 3.80029297 C62.85135813 8.07848258 82.62164212 15.71588376 100.8125 26.3125 C101.83174561 26.9012793 101.83174561 26.9012793 102.87158203 27.50195312 C109.72077954 31.47671743 116.52475 35.48069211 122.8125 40.3125 C122.8125 40.9725 122.8125 41.6325 122.8125 42.3125 C123.51761719 42.53550781 124.22273438 42.75851563 124.94921875 42.98828125 C128.43258644 44.59927941 130.89519692 46.87151283 133.625 49.5 C134.68930605 50.50345137 135.75441042 51.50605666 136.8203125 52.5078125 C137.33368164 52.99282227 137.84705078 53.47783203 138.37597656 53.97753906 C140.19965943 55.67228718 142.09335019 57.27463931 144 58.875 C157.31326998 70.52069407 168.14206461 85.99376789 176.8125 101.3125 C177.38798584 102.31410156 177.38798584 102.31410156 177.97509766 103.3359375 C189.02899611 122.75364575 196.55394587 143.39309527 200.8125 165.3125 C200.97476074 166.09463867 201.13702148 166.87677734 201.30419922 167.68261719 C206.21232777 191.96493739 205.59060731 219.08067008 200.8125 243.3125 C197.5125 243.3125 194.2125 243.3125 190.8125 243.3125 C190.6868404 235.01896666 190.6868404 235.01896666 191.30151367 231.56323242 C194.62202348 210.4392056 191.43264842 187.92216606 186.8125 167.3125 C186.58788086 166.30477539 186.36326172 165.29705078 186.13183594 164.25878906 C178.02385537 129.12420658 159.56145849 98.23998032 134.8125 72.3125 C134.01199219 71.45914063 133.21148438 70.60578125 132.38671875 69.7265625 C101.09984048 37.26194577 52.2394886 14.45865172 7.06884766 13.35058594 C-12.03357262 13.02814734 -30.48636068 12.92160528 -49.1875 17.3125 C-49.91598145 17.48265625 -50.64446289 17.6528125 -51.39501953 17.828125 C-69.61856845 22.16798781 -86.68823525 28.44029479 -103.1875 37.3125 C-103.77837402 37.62268066 -104.36924805 37.93286133 -104.97802734 38.25244141 C-118.19243837 45.21495221 -130.10836056 54.13308046 -141.02734375 64.3046875 C-143.05288639 66.18737994 -145.13454391 67.96987061 -147.25 69.75 C-161.07653768 81.89306703 -171.56648128 97.76337884 -181.1875 113.3125 C-181.5175 112.6525 -181.8475 111.9925 -182.1875 111.3125 C-180.92505132 108.5746223 -179.5986087 105.99826569 -178.125 103.375 C-177.67817871 102.57811768 -177.23135742 101.78123535 -176.77099609 100.96020508 C-168.73470558 87.00236558 -158.87022855 74.24325544 -147.59912109 62.75488281 C-146.21317368 61.33873316 -144.85044358 59.89998019 -143.48828125 58.4609375 C-118.6014386 32.66581593 -85.63952956 15.29330827 -51.1875 6.3125 C-50.1341748 6.0343042 -50.1341748 6.0343042 -49.05957031 5.75048828 C-32.74044979 1.49800922 -16.81032973 -0.07909469 0 0 Z " fill="#FCD27B" transform="translate(1135.1875,87.6875)"/>
<path d="M0 0 C3.51370526 3.08019617 6.89710923 6.28088946 10.26367188 9.52050781 C10.94300781 10.13667969 11.62234375 10.75285156 12.32226562 11.38769531 C41.61714147 38.79454381 58.20275444 81.88404206 60.17773438 121.43066406 C60.20609375 122.4503125 60.23445313 123.46996094 60.26367188 124.52050781 C60.29203125 125.52984375 60.32039063 126.53917969 60.34960938 127.57910156 C60.44477362 134.89723175 60.1761158 142.25475064 59.26367188 149.52050781 C58.26367188 150.52050781 58.26367188 150.52050781 55.97851562 150.61816406 C54.60373047 150.60076172 54.60373047 150.60076172 53.20117188 150.58300781 C52.28207031 150.57398438 51.36296875 150.56496094 50.41601562 150.55566406 C49.70574219 150.5440625 48.99546875 150.53246094 48.26367188 150.52050781 C48.27938232 149.39781494 48.29509277 148.27512207 48.3112793 147.1184082 C48.36646319 142.86718204 48.40033611 138.6159859 48.4284668 134.36450195 C48.44335551 132.5405542 48.46367322 130.71664092 48.48999023 128.89282227 C48.66078517 116.73289243 47.88814833 105.4043369 45.26367188 93.52050781 C44.97327026 92.17508911 44.97327026 92.17508911 44.67700195 90.80249023 C44.19401094 88.71074138 43.65988773 86.64868189 43.07617188 84.58300781 C42.87040527 83.85122314 42.66463867 83.11943848 42.45263672 82.36547852 C39.89660544 73.72159626 36.21366228 65.60515844 32.26367188 57.52050781 C31.69648437 56.35648437 31.12929687 55.19246094 30.54492188 53.99316406 C23.67315898 40.622399 14.67539213 29.2733528 4.26367188 18.52050781 C3.35875 17.575625 2.45382812 16.63074219 1.52148438 15.65722656 C-3.12013373 10.79378166 -3.12013373 10.79378166 -8.52539062 6.86816406 C-9.61980469 6.20107422 -9.61980469 6.20107422 -10.73632812 5.52050781 C-10.73632812 4.86050781 -10.73632812 4.20050781 -10.73632812 3.52050781 C-11.29578125 3.25496094 -11.85523438 2.98941406 -12.43164062 2.71582031 C-14.93801127 1.41590605 -17.24779078 -0.05993131 -19.61132812 -1.60449219 C-30.30685648 -8.43142518 -40.69304079 -14.32755224 -52.73632812 -18.47949219 C-54.15438721 -18.98965782 -55.57235072 -19.50008919 -56.99023438 -20.01074219 C-91.41123391 -32.17575792 -126.816741 -30.78891355 -161.19335938 -19.31982422 C-163.43889775 -18.57777899 -165.69047218 -17.87536671 -167.95507812 -17.19433594 C-177.44329696 -14.25418409 -186.01409322 -10.15724023 -194.73632812 -5.47949219 C-195.3436377 -5.16109375 -195.95094727 -4.84269531 -196.57666016 -4.51464844 C-216.87686626 6.17025393 -234.38898957 21.92903171 -247.73632812 40.52050781 C-248.16929199 41.11589355 -248.60225586 41.7112793 -249.04833984 42.32470703 C-255.49051279 51.26589521 -260.49704164 60.53418206 -264.90185547 70.62646484 C-265.61647826 72.24847879 -266.36989504 73.85330543 -267.13085938 75.45410156 C-273.62690918 89.66292161 -277.17807066 106.01853267 -278.73632812 121.52050781 C-279.06632813 121.52050781 -279.39632812 121.52050781 -279.73632812 121.52050781 C-281.6539124 83.85062996 -263.33733386 47.05306699 -239.73632812 18.52050781 C-237.49391145 16.07779761 -235.16343796 13.77784572 -232.73632812 11.52050781 C-231.93195312 10.71613281 -231.12757813 9.91175781 -230.29882812 9.08300781 C-229.45320312 8.23738281 -228.60757813 7.39175781 -227.73632812 6.52050781 C-227.25679687 5.98296875 -226.77726563 5.44542969 -226.28320312 4.89160156 C-168.35593124 -57.60200932 -61.64522915 -52.52672787 0 0 Z " fill="#FAB77B" transform="translate(1225.736328125,180.4794921875)"/>
<path d="M0 0 C0.99 0.495 0.99 0.495 2 1 C1.16597656 1.76183594 0.33195313 2.52367188 -0.52734375 3.30859375 C-19.00563807 20.23601155 -35.92437176 38.83422417 -48 61 C-48.32919434 61.59570801 -48.65838867 62.19141602 -48.99755859 62.80517578 C-56.46409021 76.35944804 -63.15505244 90.2739094 -68 105 C-68.47179687 106.38638672 -68.47179687 106.38638672 -68.953125 107.80078125 C-74.29627321 124.82676544 -76.91056769 142.94759642 -78.375 160.6875 C-78.50189209 162.19920776 -78.50189209 162.19920776 -78.63134766 163.74145508 C-78.99458999 168.88189767 -79.0020998 173.65593434 -78.14306641 178.74536133 C-77.94255642 181.90527551 -78.54575249 184.86973178 -79 188 C-79.08898758 190.51834843 -79.13060218 193.03867456 -79.1328125 195.55859375 C-79.13376923 196.26540787 -79.13472595 196.97222198 -79.13571167 197.70045471 C-79.13638852 199.19214975 -79.13456894 200.68384782 -79.13037109 202.17553711 C-79.12508833 204.40029968 -79.13029525 206.62485359 -79.13671875 208.84960938 C-79.14077751 218.6097163 -78.69427491 228.2636209 -78 238 C-85.59 238 -93.18 238 -101 238 C-103.27269026 228.90923895 -104.15451543 220.68475159 -104.23828125 211.3671875 C-104.24780319 210.46382156 -104.25732513 209.56045563 -104.26713562 208.62971497 C-104.29155688 205.71144425 -104.30412792 202.79335915 -104.3125 199.875 C-104.31644775 198.88198883 -104.32039551 197.88897766 -104.32446289 196.86587524 C-104.35703846 179.28409514 -102.98496557 162.32828082 -100 145 C-99.67 145 -99.34 145 -99 145 C-98.97494385 146.01723145 -98.9498877 147.03446289 -98.92407227 148.08251953 C-98.82853832 151.92570563 -98.72869974 155.76877077 -98.62768555 159.61181641 C-98.5848794 161.26217787 -98.54317752 162.91256842 -98.50268555 164.56298828 C-98.25220228 174.73693811 -97.84148717 184.85465902 -97 195 C-96.98541748 194.24195068 -96.97083496 193.48390137 -96.95581055 192.70288086 C-96.33942144 163.81535874 -93.18727497 136.47622919 -84 109 C-83.66742187 107.93394531 -83.33484375 106.86789063 -82.9921875 105.76953125 C-77.47757241 89.00101648 -69.10911946 66.10072566 -56 54 C-55.08201865 52.74507173 -54.18673351 51.47328789 -53.3125 50.1875 C-52.1678125 48.6096875 -52.1678125 48.6096875 -51 47 C-50.34 47 -49.68 47 -49 47 C-48.77666992 46.2898877 -48.55333984 45.57977539 -48.32324219 44.84814453 C-46.7223428 41.40237105 -44.49290646 39.06229516 -41.828125 36.4296875 C-41.0562812 35.65177101 -41.0562812 35.65177101 -40.2688446 34.85813904 C-38.60467082 33.18802552 -36.92849547 31.53071087 -35.25 29.875 C-34.6829837 29.31130707 -34.11596741 28.74761414 -33.5317688 28.1668396 C-25.45000274 20.14096503 -17.30340801 12.61342403 -8 6 C-6.3726173 4.77398971 -4.74724803 3.54529643 -3.125 2.3125 C-2.09375 1.549375 -1.0625 0.78625 0 0 Z " fill="#FCD27B" transform="translate(1008,93)"/>
<path d="M0 0 C1.45702971 0.00502424 2.9140611 0.00958551 4.37109375 0.01367188 C7.9140977 0.02460612 11.45703797 0.04182 15 0.0625 C15 0.3925 15 0.7225 15 1.0625 C14.351521 1.13243164 13.70304199 1.20236328 13.03491211 1.27441406 C-3.02982349 3.04373952 -18.07481686 5.13278995 -32.984375 11.73046875 C-35.07863491 12.65552397 -37.19574472 13.52985093 -39.328125 14.36328125 C-53.94643223 20.18110532 -65.92460335 28.98710335 -77 40.0625 C-77.81210937 40.87460938 -78.62421875 41.68671875 -79.4609375 42.5234375 C-92.17521316 55.93200808 -100.66626922 73.2241637 -105 91.0625 C-105.21398437 91.89652344 -105.42796875 92.73054688 -105.6484375 93.58984375 C-109.672915 110.18352273 -108.34481676 127.33474475 -106 144.0625 C-108.31 144.0625 -110.62 144.0625 -113 144.0625 C-117.62747484 123.23886323 -118.07513509 100.85322414 -113 80.0625 C-112.82839355 79.35625488 -112.65678711 78.65000977 -112.47998047 77.92236328 C-109.77118937 67.17192425 -105.92133182 56.99100082 -101 47.0625 C-100.42765625 45.90621094 -99.8553125 44.74992187 -99.265625 43.55859375 C-94.5206751 34.97104554 -88.48646134 29.70929355 -80.58789062 24.17724609 C-79.29299809 23.26819331 -78.02495711 22.32099011 -76.765625 21.36328125 C-65.17770978 12.90410314 -50.87190577 7.31579219 -37 4.0625 C-35.8553125 3.77761719 -34.710625 3.49273437 -33.53125 3.19921875 C-22.20476819 0.45852189 -11.5806342 -0.06963622 0 0 Z " fill="#FAB87B" transform="translate(1100,186.9375)"/>
<path d="M0 0 C21.46673947 11.20003799 36.24421214 31.32019247 43.4375 54.125 C45.84045019 62.42218226 46.18268335 70.22442161 46.1875 78.8125 C46.19974609 79.95009766 46.21199219 81.08769531 46.22460938 82.25976562 C46.2359826 88.82969899 45.78076372 94.66471791 44 101 C43 102 43 102 41.14233398 102.11352539 C39.95619507 102.10567017 39.95619507 102.10567017 38.74609375 102.09765625 C37.89208984 102.09443359 37.03808594 102.09121094 36.15820312 102.08789062 C35.26037109 102.07951172 34.36253906 102.07113281 33.4375 102.0625 C32.53580078 102.05798828 31.63410156 102.05347656 30.70507812 102.04882812 C28.46998686 102.03700225 26.23502563 102.0205222 24 102 C24.19190918 101.44022461 24.38381836 100.88044922 24.58154297 100.30371094 C26.26997885 95.31920478 27.78414484 90.33891487 29.125 85.25 C29.45757813 83.99703125 29.79015625 82.7440625 30.1328125 81.453125 C34.76646385 63.00200882 31.79133697 43.82210026 23 27 C17.63901444 18.13817592 11.33053944 8.70175611 2.234375 3.3828125 C1.49703125 2.92648438 0.7596875 2.47015625 0 2 C0 1.34 0 0.68 0 0 Z " fill="#FDD37B" transform="translate(1166,229)"/>
<path d="M0 0 C0.33 0.66 0.66 1.32 1 2 C0.33532234 3.52966913 -0.41080422 5.02405024 -1.1875 6.5 C-10.9452292 27.35101352 -9.3361503 48.24663319 -1.77734375 69.42578125 C-0.90409218 71.63864455 0.03713288 73.82463355 1 76 C-3.95 76 -8.9 76 -14 76 C-20.56244553 55.21017255 -16.66900143 30.40580039 -6.99414062 11.39892578 C-4.88853283 7.42660774 -2.55102089 3.70125799 0 0 Z " fill="#FCD27B" transform="translate(1050,255)"/>
<path d="M0 0 C0.33 0.66 0.66 1.32 1 2 C0.33532234 3.52966913 -0.41080422 5.02405024 -1.1875 6.5 C-3.99073999 12.37049703 -5.34248707 18.19527812 -6.56713867 24.54101562 C-7.52155302 29.3590896 -8.99036558 33.48889957 -11 38 C-13.67651004 46.8873859 -14.59810974 55.75652409 -15 65 C-15.33 65 -15.66 65 -16 65 C-16.70595986 40.2588221 -14.25209756 20.67826655 0 0 Z " fill="#FABB7C" transform="translate(1050,255)"/>
<path d="M0 0 C0.33 0 0.66 0 1 0 C2.77447044 13.7204589 3.25546702 27.17137366 3 41 C1.02 41 -0.96 41 -3 41 C-3.0852546 36.47013897 -2.82190429 32.27469312 -2.0625 27.8125 C-0.65598738 18.58537819 -0.35619571 9.31732983 0 0 Z " fill="#FEE996" transform="translate(1269,290)"/>
<path d="M0 0 C2.58244241 4.51034873 3.67349637 9.56738915 5.05664062 14.53710938 C6.38801218 19.21142634 7.99341954 23.57148278 10 28 C8.35 27.67 6.7 27.34 5 27 C1.73005183 17.84414513 0.29051283 9.68860296 0 0 Z " fill="#FABE7C" transform="translate(1041,303)"/>
<path d="M0 0 C0.33 0 0.66 0 1 0 C2.25981943 8.6612586 2.09020653 17.27001243 2 26 C0.68 26 -0.64 26 -2 26 C-1.34 17.42 -0.68 8.84 0 0 Z " fill="#FAB87B" transform="translate(1236,305)"/>
</svg>
